<svg width="48" height="48" viewBox="0 0 48 48" fill="none" xmlns="http://www.w3.org/2000/svg">
<rect width="48" height="48" rx="24" fill="#F4F4F4"/>
<path d="M16.2222 31.0482H34.1111V28.7148C34.1111 27.0037 32.7111 25.6037 31 25.6037H29.4444C27.4222 25.6037 25.9444 23.7371 26.4111 21.7926L27.0333 18.9148C27.1111 18.6815 27.1111 18.526 27.1111 18.2926V17.826C27.1111 16.1148 25.7111 14.7148 24 14.7148C22.2889 14.7148 20.8889 16.1148 20.8889 17.826V18.2926C20.8889 18.526 20.8889 18.7593 20.9667 18.9926L21.5889 21.8704C22.0556 23.7371 20.5778 25.6037 18.5556 25.6037H17C15.2889 25.6037 13.8889 27.0037 13.8889 28.7148V31.0482" stroke="black" stroke-width="2" stroke-miterlimit="10" stroke-linecap="round" stroke-linejoin="round"/>
<path d="M31.7778 33.3818V34.1596H16.2222V33.3818" stroke="#7B00A0" stroke-width="2" stroke-miterlimit="10" stroke-linecap="round" stroke-linejoin="round"/>
</svg>
