<svg width="48" height="48" viewBox="0 0 48 48" fill="none" xmlns="http://www.w3.org/2000/svg">
<rect width="48" height="48" rx="24" fill="#F4F4F4"/>
<path d="M32.75 22.25V33.625C32.75 34.5875 31.9625 35.375 31 35.375H17C16.0375 35.375 15.25 34.5875 15.25 33.625V24.875" stroke="black" stroke-width="2" stroke-miterlimit="10" stroke-linecap="round" stroke-linejoin="round"/>
<path d="M24 17H14.375C13.85 17 13.5 17.35 13.5 17.875V21.375C13.5 21.9 13.85 22.25 14.4625 22.25H33.625C34.0625 22.25 34.5 21.9 34.5 21.375V17.875C34.5 17.35 34.0625 17 33.625 17H31" stroke="black" stroke-width="2" stroke-miterlimit="10" stroke-linecap="round" stroke-linejoin="round"/>
<path d="M26.1875 12.625C24.9625 12.625 24 13.5875 24 14.8125V17H26.1875C27.4125 17 28.375 16.0375 28.375 14.8125C28.375 13.5875 27.4125 12.625 26.1875 12.625Z" stroke="black" stroke-width="2" stroke-miterlimit="10" stroke-linecap="round" stroke-linejoin="round"/>
<path d="M21.8125 12.625C23.0375 12.625 24 13.5875 24 14.8125V17H21.8125C20.5875 17 19.625 16.0375 19.625 14.8125C19.625 13.5875 20.5875 12.625 21.8125 12.625Z" stroke="black" stroke-width="2" stroke-miterlimit="10" stroke-linecap="round" stroke-linejoin="round"/>
<path d="M24 17V22.25" stroke="black" stroke-width="2" stroke-miterlimit="10" stroke-linecap="round" stroke-linejoin="round"/>
<path d="M27.4125 28.2C27.5 27.15 26.8 26.1875 25.75 26.1875C24.9625 26.1875 24.2625 26.625 24 27.4125C24 27.5 23.825 27.5 23.825 27.4125C23.5625 26.7125 22.95 26.1875 22.075 26.1875C21.025 26.1875 20.325 27.2375 20.4125 28.2C20.675 30.475 23.825 32.05 23.825 32.05C23.825 32.05 27.15 30.475 27.4125 28.2Z" stroke="#7B00A0" stroke-width="2" stroke-miterlimit="10" stroke-linecap="round" stroke-linejoin="round"/>
</svg>
