<svg width="8" height="12" viewBox="0 0 8 12" fill="none" xmlns="http://www.w3.org/2000/svg">
<path d="M0.630906 0.431969C0.466868 0.596056 0.374718 0.818575 0.374718 1.05059C0.374718 1.28261 0.466868 1.50513 0.630906 1.66922L4.96216 6.00047L0.630906 10.3317C0.471518 10.4967 0.383322 10.7178 0.385316 10.9472C0.38731 11.1766 0.479332 11.3961 0.641564 11.5583C0.803797 11.7205 1.02326 11.8126 1.25268 11.8146C1.4821 11.8166 1.70313 11.7284 1.86816 11.569L6.81803 6.61909C6.98207 6.45501 7.07422 6.23249 7.07422 6.00047C7.07422 5.76845 6.98207 5.54593 6.81803 5.38184L1.86816 0.431969C1.70407 0.267932 1.48155 0.175781 1.24953 0.175781C1.01751 0.175781 0.794992 0.267932 0.630906 0.431969Z" fill="#620080"/>
</svg>
