<svg width="14" height="14" viewBox="0 0 14 14" fill="none" xmlns="http://www.w3.org/2000/svg">
<path d="M9.77056 1.26414C9.91747 1.43332 10 1.66274 10 1.90196C10 2.14118 9.91747 2.37061 9.77056 2.53978L5.89154 7.00545L9.77056 11.4711C9.91331 11.6413 9.99229 11.8691 9.99051 12.1057C9.98872 12.3422 9.90631 12.5685 9.76101 12.7358C9.61572 12.903 9.41917 12.9979 9.21371 13C9.00824 13.002 8.81029 12.9111 8.66249 12.7468L4.22944 7.64327C4.08253 7.47409 4 7.24467 4 7.00545C4 6.76623 4.08253 6.5368 4.22944 6.36762L8.66249 1.26414C8.80945 1.09501 9.00873 1 9.21653 1C9.42432 1 9.62361 1.09501 9.77056 1.26414Z" fill="#7B00A0"/>
</svg>
