<svg width="32" height="38" viewBox="0 0 32 38" fill="none" xmlns="http://www.w3.org/2000/svg">
<g filter="url(#filter0_d_309_8745)">
<path d="M8 8C12.4183 3.58172 19.5817 3.58172 24 8C28.4183 12.4183 28.4183 19.5817 24 24L16 32L8 24C3.58172 19.5817 3.58172 12.4183 8 8Z" fill="#7B00A0"/>
<path d="M21.9666 13.3407C21.9295 13.4022 21.8538 13.4474 21.7535 13.4986C21.1544 13.8048 20.5537 14.1525 19.9582 14.6033C19.287 15.1112 18.6433 15.7763 18.108 16.3687C17.3885 17.165 16.73 18.083 16.2644 18.7554C16.0543 19.0587 15.7996 19.4138 15.4886 19.7475C15.1233 20.1397 14.4521 20.6595 13.4928 20.6595C12.5335 20.6595 11.9069 20.1153 11.5386 19.6252C11.2728 19.2722 10.4999 18.0392 10.7122 15.8623C10.7664 15.3062 10.8444 15.0178 10.9506 14.6819C11.0523 14.3609 11.2201 13.9724 11.4265 13.6276C11.6359 13.2784 11.9277 12.9773 12.2187 12.7727C12.6924 12.4383 13.2916 12.2552 13.8165 12.1788C14.3169 12.1069 14.7446 12.1373 15.0059 12.1536C15.2859 12.1714 15.5123 12.2196 15.6489 12.2493C15.7291 12.267 15.8242 12.2937 15.8657 12.3086C15.9103 12.3241 15.9652 12.3471 15.9816 12.362C15.9868 12.3671 15.989 12.3746 15.986 12.3805C15.9786 12.3953 15.9615 12.4057 15.9021 12.4368C15.8694 12.4539 15.8338 12.4724 15.7915 12.4932C15.0743 12.8461 14.4773 13.3911 14.0222 13.9205C13.5759 14.4387 13.2975 14.9652 13.1966 15.2373C13.0585 15.611 12.8914 16.3131 13.5002 16.3161C13.9272 16.3183 14.1195 15.7511 14.2783 15.3114C14.6971 14.1511 15.1106 13.4148 15.9637 12.7957C17.4658 11.7058 19.388 11.9193 20.6977 12.4064C21.04 12.534 21.3541 12.6949 21.5642 12.832C21.7424 12.9492 21.934 13.0975 21.9792 13.2198C21.9896 13.2472 21.9926 13.2732 21.9859 13.2977C21.9822 13.3125 21.9763 13.3266 21.9681 13.3392L21.9666 13.3407Z" fill="white"/>
</g>
<defs>
<filter id="filter0_d_309_8745" x="-4" y="-2" width="40" height="40" filterUnits="userSpaceOnUse" color-interpolation-filters="sRGB">
<feFlood flood-opacity="0" result="BackgroundImageFix"/>
<feColorMatrix in="SourceAlpha" type="matrix" values="0 0 0 0 0 0 0 0 0 0 0 0 0 0 0 0 0 0 127 0" result="hardAlpha"/>
<feOffset dy="2"/>
<feGaussianBlur stdDeviation="2"/>
<feComposite in2="hardAlpha" operator="out"/>
<feColorMatrix type="matrix" values="0 0 0 0 0 0 0 0 0 0 0 0 0 0 0 0 0 0 0.1 0"/>
<feBlend mode="normal" in2="BackgroundImageFix" result="effect1_dropShadow_309_8745"/>
<feBlend mode="normal" in="SourceGraphic" in2="effect1_dropShadow_309_8745" result="shape"/>
</filter>
</defs>
</svg>
