<svg width="30" height="29" viewBox="0 0 30 29" fill="none" xmlns="http://www.w3.org/2000/svg">
<path d="M22.4737 28.8422H8.17911C4.13336 28.8422 0.841797 25.5627 0.841797 21.5318V19.9824H3.59078V21.5318C3.59078 24.0528 5.64929 26.1033 8.17911 26.1033H22.4737C25.0036 26.1033 27.0621 24.0528 27.0621 21.5318V20.1626H29.8111V21.5318C29.8111 25.5627 26.5195 28.8422 22.4737 28.8422Z" fill="white"/>
<path d="M15.3418 22C14.5135 22 13.8418 21.3295 13.8418 20.5026V1.49728C13.8418 0.670352 14.5135 0 15.3418 0C16.1701 0 16.8418 0.670352 16.8418 1.49728V20.5026C16.8418 21.3295 16.1701 22 15.3418 22Z" fill="white"/>
<path d="M6.35156 13.2159L7.95882 11.7246L15.3237 19.6208L22.6909 11.7246L24.2977 13.2159L15.3237 22.8306L6.35156 13.2159Z" fill="white"/>
</svg>
