<svg width="25" height="24" viewBox="0 0 25 24" fill="none" xmlns="http://www.w3.org/2000/svg">
<path d="M5.19199 7.35117C4.96699 5.62617 6.46699 4.12617 8.19199 4.35117C9.16699 4.50117 10.142 4.05117 10.667 3.30117C11.717 1.87617 13.892 1.87617 14.942 3.30117C15.542 4.05117 16.517 4.50117 17.417 4.35117C19.142 4.12617 20.642 5.62617 20.417 7.35117C20.267 8.32617 20.717 9.30117 21.467 9.82617C22.892 10.8762 22.892 13.0512 21.467 14.1012C20.717 14.7012 20.267 15.6762 20.417 16.5762C20.642 18.3012 19.142 19.8012 17.417 19.5762C16.442 19.4262 15.467 19.8762 14.942 20.6262C13.892 22.0512 11.717 22.0512 10.667 20.6262C10.067 19.8762 9.09199 19.4262 8.19199 19.5762C6.46699 19.8012 4.96699 18.3012 5.19199 16.5762C5.34199 15.6012 4.89199 14.6262 4.14199 14.1012C2.71699 13.0512 2.71699 10.8762 4.14199 9.82617" stroke="#B07FBF" stroke-miterlimit="10" stroke-linecap="round" stroke-linejoin="round"/>
<path d="M9.39185 11.625L11.9418 14.25L16.2168 10.125" stroke="white" stroke-opacity="0.4" stroke-miterlimit="10" stroke-linecap="round" stroke-linejoin="round"/>
</svg>
