<svg width="25" height="24" viewBox="0 0 25 24" fill="none" xmlns="http://www.w3.org/2000/svg">
<path d="M7.93139 8.47802C8.70844 8.47802 9.33837 7.84809 9.33837 7.07104C9.33837 6.29399 8.70844 5.66406 7.93139 5.66406C7.15434 5.66406 6.52441 6.29399 6.52441 7.07104C6.52441 7.84809 7.15434 8.47802 7.93139 8.47802Z" fill="white" fill-opacity="0.4"/>
<path d="M15.0371 20.9996L22.0016 14.0351C22.5644 13.4723 22.5644 12.6281 22.0016 12.0653L13.208 3.2717C12.9266 2.99031 12.5749 2.84961 12.2231 2.84961H5.11791C4.34408 2.84961 3.71094 3.48275 3.71094 4.25659V11.0804C3.71094 11.4322 3.85164 11.7839 4.13303 12.0653L12.5045 20.4368" stroke="#B07FBF" stroke-miterlimit="10" stroke-linecap="round" stroke-linejoin="round"/>
<path d="M11.2383 19.1696L18.2028 12.2051" stroke="#B07FBF" stroke-miterlimit="10" stroke-linecap="round" stroke-linejoin="round"/>
</svg>
