<svg width="25" height="24" viewBox="0 0 25 24" fill="none" xmlns="http://www.w3.org/2000/svg">
<path d="M6.1748 18.041H21.5081V16.041C21.5081 14.5744 20.3081 13.3744 18.8415 13.3744H17.5081C15.7748 13.3744 14.5081 11.7744 14.9081 10.1077L15.4415 7.64102C15.5081 7.44102 15.5081 7.30768 15.5081 7.10768V6.70768C15.5081 5.24102 14.3081 4.04102 12.8415 4.04102C11.3748 4.04102 10.1748 5.24102 10.1748 6.70768V7.10768C10.1748 7.30768 10.1748 7.50768 10.2415 7.70768L10.7748 10.1743C11.1748 11.7743 9.90814 13.3744 8.1748 13.3744H6.84147C5.3748 13.3744 4.1748 14.5744 4.1748 16.041V18.041" stroke="#B07FBF" stroke-miterlimit="10" stroke-linecap="round" stroke-linejoin="round"/>
<path d="M19.5081 20.043V20.7096H6.1748V20.043" stroke="white" stroke-opacity="0.4" stroke-miterlimit="10" stroke-linecap="round" stroke-linejoin="round"/>
</svg>
