<svg width="80" height="80" viewBox="0 0 80 80" fill="none" xmlns="http://www.w3.org/2000/svg">
<rect width="80" height="80" rx="40" fill="#FFF9DD"/>
<path d="M32 43V57.8167C32 58.2664 32.2592 58.6782 32.6697 58.8769C33.0777 59.0757 33.5674 59.0308 33.9298 58.7562L40 54.1794L46.0726 58.7562C46.2862 58.9172 46.5431 59 46.7999 59C46.9823 59 47.1623 58.9598 47.3303 58.8769C47.7408 58.6782 48 58.2664 48 57.8167V43C45.751 44.6211 42.9907 45.589 40 45.589C37.0093 45.589 34.2466 44.6211 32 43Z" fill="#FFE777"/>
<path d="M40 21C33.9355 21 29 25.9331 29 32C29 38.0669 33.9331 43 40 43C46.0669 43 51 38.0669 51 32C51 25.9331 46.0645 21 40 21ZM47.0544 29.973L46.0339 35.7405C45.9231 36.3062 45.4375 36.7139 44.8719 36.7139H35.1305C34.5648 36.7139 34.0769 36.3062 33.9685 35.7405L32.9479 29.973C32.8702 29.5487 33.0422 29.108 33.3887 28.8417C33.7493 28.5753 34.2207 28.5282 34.6143 28.7002L36.9548 29.8151L38.9818 26.3103C39.406 25.5725 40.601 25.5725 41.0253 26.3103L43.0523 29.8151L45.3928 28.7002C45.8005 28.5117 46.2578 28.5753 46.6184 28.8417C46.9601 29.108 47.1346 29.5487 47.0544 29.973Z" fill="#FFD200"/>
</svg>
