<svg width="56" height="56" viewBox="0 0 56 56" fill="none" xmlns="http://www.w3.org/2000/svg">
<path d="M18.5 17.8947V38.7368C18.5 39.0719 18.6349 39.3931 18.8749 39.63C19.115 39.8669 19.4405 40 19.78 40H36.42C36.7595 40 37.0851 39.8669 37.3251 39.63C37.5651 39.3931 37.7 39.0719 37.7 38.7368V21.0526C37.7 20.7176 37.5651 20.3963 37.3251 20.1594C37.0851 19.9226 36.7595 19.7895 36.42 19.7895H20.42C19.9108 19.7895 19.4224 19.5899 19.0624 19.2345C18.7023 18.8792 18.5 18.3973 18.5 17.8947ZM18.5 17.8947C18.5 17.3922 18.7023 16.9103 19.0624 16.555C19.4224 16.1996 19.9108 16 20.42 16H36.42" stroke="black" stroke-width="2" stroke-linecap="round" stroke-linejoin="round"/>
<path d="M30.8427 27.1C30.8427 28.5912 29.6146 29.8 28.0998 29.8C26.585 29.8 25.3569 28.5912 25.3569 27.1C25.3569 25.6089 26.585 24.4 28.0998 24.4C29.6146 24.4 30.8427 25.6089 30.8427 27.1Z" fill="#7B00A0"/>
<path d="M23.2998 34.525C23.2998 31.9155 25.4488 29.8 28.0998 29.8C30.7508 29.8 32.8998 31.9155 32.8998 34.525V35.2H23.2998V34.525Z" fill="#7B00A0"/>
</svg>
