<svg width="22" height="22" viewBox="0 0 22 22" fill="none" xmlns="http://www.w3.org/2000/svg">
<path d="M20.4531 10.1836H17.8277C17.4561 7.03828 14.9617 4.54395 11.8164 4.17227V1.54688C11.8164 1.45234 11.7391 1.375 11.6445 1.375H10.3555C10.2609 1.375 10.1836 1.45234 10.1836 1.54688V4.17227C7.03828 4.54395 4.54395 7.03828 4.17227 10.1836H1.54688C1.45234 10.1836 1.375 10.2609 1.375 10.3555V11.6445C1.375 11.7391 1.45234 11.8164 1.54688 11.8164H4.17227C4.54395 14.9617 7.03828 17.4561 10.1836 17.8277V20.4531C10.1836 20.5477 10.2609 20.625 10.3555 20.625H11.6445C11.7391 20.625 11.8164 20.5477 11.8164 20.4531V17.8277C14.9617 17.4561 17.4561 14.9617 17.8277 11.8164H20.4531C20.5477 11.8164 20.625 11.7391 20.625 11.6445V10.3555C20.625 10.2609 20.5477 10.1836 20.4531 10.1836ZM11 16.2422C8.10391 16.2422 5.75781 13.8961 5.75781 11C5.75781 8.10391 8.10391 5.75781 11 5.75781C13.8961 5.75781 16.2422 8.10391 16.2422 11C16.2422 13.8961 13.8961 16.2422 11 16.2422Z" fill="#620080"/>
<path d="M11 8.42188C10.3104 8.42188 9.66582 8.68828 9.17813 9.17813C8.69043 9.66582 8.42188 10.3104 8.42188 11C8.42188 11.6896 8.69043 12.3342 9.17813 12.8219C9.66582 13.3074 10.3125 13.5781 11 13.5781C11.6875 13.5781 12.3342 13.3096 12.8219 12.8219C13.3074 12.3342 13.5781 11.6875 13.5781 11C13.5781 10.3125 13.3096 9.66582 12.8219 9.17813C12.3342 8.68828 11.6896 8.42188 11 8.42188Z" fill="#620080"/>
</svg>
