<svg width="94" height="16" viewBox="0 0 94 16" fill="none" xmlns="http://www.w3.org/2000/svg">
<path d="M28.1797 9.48245C28.7857 9.48245 29.7267 9.20657 30.0448 8.65301C30.361 8.09944 30.5135 7.48107 30.4984 6.80161C30.4833 6.40541 30.4212 6.07032 30.1163 6.02404C29.8509 5.98516 29.5028 6.07772 29.1094 6.5776C28.9061 6.8368 28.6803 7.19783 28.4714 7.69585C28.2625 8.19202 28.0856 8.78075 27.9406 9.46207C27.9971 9.47688 28.078 9.48245 28.1778 9.48245M33.8466 5.30013C34.6691 5.87407 35.0794 6.60907 35.0794 7.5033C35.0794 7.7736 35.0512 8.02169 34.9928 8.24756C34.7764 9.18437 34.1741 9.85457 33.186 10.26C32.1979 10.6636 31.0329 10.8673 29.691 10.8673C29.0115 10.8673 28.3773 10.8247 27.7863 10.7395C27.7712 11.4782 27.9726 11.9948 28.3923 12.2929C28.8102 12.5909 29.3955 12.739 30.1446 12.739C30.4909 12.739 30.8296 12.7076 31.1496 12.6428C31.4884 12.5743 31.8723 12.4706 32.3579 12.2966C32.9658 12.0799 33.3724 11.9189 33.57 11.9504C33.7883 11.9837 33.8429 12.1392 33.8391 12.3373C33.8278 12.8353 33.6434 13.3204 33.2613 13.8962C32.8905 14.4553 32.2939 14.907 31.5298 15.2903C30.7656 15.6735 29.4294 15.8679 28.349 15.8679C26.7474 15.8679 25.4356 15.4717 24.4117 14.6756C23.3878 13.8814 22.874 12.7242 22.874 11.2061C22.874 10.7803 22.9324 10.2841 23.0472 9.71571C23.4085 7.96984 24.1971 6.65351 25.4167 5.76669C26.6345 4.87987 28.1175 4.43555 29.8622 4.43555C31.6935 4.43555 33.0223 4.7225 33.8448 5.29828" fill="white"/>
<path d="M55.9492 9.50198C56.5552 9.50198 57.4963 9.22613 57.8143 8.67256C58.1324 8.11899 58.283 7.50063 58.2679 6.82117C58.2529 6.42497 58.1908 6.08985 57.8859 6.04357C57.6205 6.00284 57.2723 6.09726 56.8789 6.59713C56.6757 6.85633 56.4498 7.21736 56.2409 7.71538C56.032 8.21156 55.8551 8.80031 55.7101 9.48162C55.7666 9.49643 55.8475 9.50198 55.9473 9.50198M61.6162 5.31969C62.4386 5.89362 62.8489 6.62861 62.8489 7.52283C62.8489 7.79313 62.8207 8.04122 62.7624 8.26709C62.5459 9.2039 61.9436 9.8741 60.9555 10.2796C59.9674 10.6832 58.8024 10.8868 57.4605 10.8868C56.7829 10.8868 56.1468 10.8442 55.5558 10.7591C55.5408 11.4978 55.7421 12.0143 56.1618 12.3124C56.5797 12.6105 57.165 12.7586 57.9141 12.7586C58.2604 12.7586 58.5992 12.7271 58.9191 12.6623C59.2579 12.5938 59.6419 12.4901 60.1274 12.3161C60.7354 12.0995 61.1419 11.9421 61.3395 11.9699C61.5446 11.9977 61.6143 12.1661 61.6105 12.3642C61.5992 12.8604 61.4129 13.3399 61.0308 13.9157C60.6601 14.4748 60.0634 14.9266 59.2993 15.3098C58.5352 15.693 57.1989 15.8874 56.1186 15.8874C54.5169 15.8874 53.2051 15.4912 52.1812 14.6951C51.1574 13.9009 50.6436 12.7438 50.6436 11.2256C50.6436 10.7998 50.7019 10.3036 50.8167 9.73526C51.1781 7.98939 51.9667 6.67304 53.1863 5.78622C54.4059 4.8994 55.8871 4.45508 57.6318 4.45508C59.4631 4.45508 60.7918 4.74205 61.6143 5.31783" fill="white"/>
<path d="M93.4371 0.544322C93.8117 0.905344 93.9999 1.34967 93.9999 1.87546C93.9999 2.24389 93.902 2.60676 93.7081 2.96038C93.5124 3.31585 93.2395 3.60282 92.8857 3.82128C92.5318 4.0416 92.1403 4.15084 91.7056 4.15084C91.1579 4.15084 90.6987 3.96939 90.3317 3.60837C89.9628 3.24549 89.7727 2.79562 89.7576 2.25686C89.7576 1.90325 89.8517 1.55147 90.038 1.20341C90.2244 0.855344 90.4916 0.568394 90.8379 0.340673C91.1842 0.114803 91.5814 0 92.0274 0C92.5902 0 93.0588 0.181447 93.4333 0.542469M92.769 5.06541C93.1228 5.35423 93.136 5.84671 92.976 6.39658C92.8838 6.71502 92.513 7.81475 92.4114 8.16282L90.7194 13.5337C90.6761 13.704 90.6554 13.8521 90.6554 13.9799C90.6554 14.165 90.6911 14.3094 90.7626 14.4168C90.8492 14.5464 90.9942 14.6538 91.0657 14.726C91.1297 14.7889 91.2426 14.8963 91.2802 14.963C91.3197 15.0296 91.3329 15.1204 91.2991 15.224C91.2275 15.4092 91.0864 15.5351 90.8699 15.6202C90.6535 15.7054 90.3222 15.748 89.8743 15.748H85.3498C84.9752 15.748 84.7004 15.6869 84.5273 15.5665C84.3541 15.4462 84.2977 15.287 84.3541 15.087C84.4125 14.9167 84.563 14.7686 84.8077 14.6408C85.0242 14.5279 85.2048 14.3927 85.3498 14.2372C85.4928 14.0817 85.6151 13.8318 85.7168 13.4911L87.5989 7.33893C87.6421 7.21119 87.6647 7.10566 87.6647 7.0205C87.6647 6.86498 87.6271 6.74093 87.5556 6.64837C87.484 6.5558 87.3749 6.45951 87.2319 6.36139C87.0869 6.24845 86.9872 6.14848 86.9288 6.06332C86.8705 5.97815 86.8648 5.86522 86.9062 5.72267C86.9928 5.39682 87.469 5.12468 88.2915 4.87659C89.1139 4.6285 89.9439 4.5137 90.8379 4.55813C91.6002 4.59516 92.3794 4.75438 92.7671 5.06912" fill="white"/>
<path d="M21.0587 12.8169C21.038 12.8928 21.021 12.952 21.0154 13.052C21.0116 13.1446 21.038 13.2353 21.0888 13.2908C21.1396 13.3482 21.2074 13.376 21.2921 13.3815C21.4652 13.389 21.6177 13.3056 21.74 13.1557C21.8623 13.0057 21.9169 12.9465 21.9828 12.9354C22.0581 12.9242 22.1239 12.9835 22.1672 13.0761C22.2105 13.1686 22.2275 13.2631 22.2275 13.3927C22.2425 13.8037 22.0242 14.3239 21.7155 14.6979C21.3692 15.1163 21.0813 15.3755 20.59 15.5921C20.0499 15.831 19.5775 15.9791 18.7983 15.9791C17.8459 15.9791 17.2399 15.7884 16.8202 15.5477C16.312 15.257 15.7813 14.7905 15.7926 13.9037C15.8001 13.3427 16.0485 12.6373 16.2198 12.0559C16.3403 11.6486 17.287 8.78269 17.287 8.78269C17.3604 8.57904 17.4206 8.39944 17.4281 8.23651C17.4375 7.99028 17.3114 7.88845 17.2023 7.79773C17.0762 7.69406 16.8823 7.66073 16.7092 7.66073C16.4344 7.66073 16.1615 7.80146 15.881 8.04954C15.5987 8.29763 15.3729 8.69938 15.1997 9.2511V9.2085L13.8371 13.5297C13.7938 13.7 13.7731 13.8481 13.7731 13.9758C13.7731 14.161 13.8088 14.3054 13.8804 14.4128C13.9519 14.5183 14.0554 14.6035 14.1834 14.722C14.2888 14.8182 14.3603 14.896 14.3998 14.9626C14.4469 15.0423 14.4582 15.1237 14.4224 15.2237C14.3509 15.4088 14.2022 15.5384 13.9876 15.6162C13.7693 15.6958 13.4983 15.7402 12.992 15.7439L8.59356 15.7291C8.21902 15.7291 7.93482 15.6828 7.77108 15.5477C7.60358 15.4107 7.55463 15.2311 7.59792 15.0682C7.64497 14.8941 7.80684 14.7497 8.05151 14.622C8.26795 14.5091 8.44864 14.3739 8.59356 14.2165C8.7366 14.061 8.86083 13.8129 8.96058 13.4723L12.0208 3.21368C12.0641 3.08593 12.0867 2.98041 12.0867 2.89525C12.0867 2.73973 12.0472 2.61199 11.9682 2.51202C11.8891 2.41204 11.7837 2.31392 11.6538 2.21394C11.5089 2.10101 11.4054 2.00104 11.3395 1.91587C11.2755 1.83071 11.2643 1.71776 11.3075 1.5752C11.3941 1.24935 11.8477 0.966095 12.6702 0.723563C13.4927 0.482881 14.3208 0.384766 15.2148 0.384766C16.0504 0.384766 16.6433 0.547679 17.0159 0.884633C17.3905 1.22159 17.5505 1.53078 17.3792 2.16766C17.2964 2.47314 17.223 2.70827 17.1364 3.02486L16.0636 6.42216C16.6264 5.69827 17.2211 5.19468 17.8478 4.91142C18.4746 4.62815 19.1578 4.48561 19.8918 4.48561C20.7707 4.48561 21.3617 4.73739 21.9075 5.25948C22.3912 5.72048 22.6942 6.28331 22.6942 7.12014C22.6942 7.56077 22.5154 8.19024 22.3818 8.64013C22.3818 8.64013 21.0925 12.704 21.0587 12.8169Z" fill="white"/>
<path d="M9.31666 4.89676C9.46723 5.00969 9.54441 5.16707 9.54441 5.36516C9.54441 5.42256 9.52935 5.52068 9.50112 5.66324C9.31291 6.28716 8.88003 6.60003 8.20247 6.60003H7.08638L5.41508 11.858C5.33791 12.1005 5.26075 12.2894 5.25134 12.5189C5.23816 12.7744 5.32286 12.9522 5.46778 13.0521C5.6127 13.1521 5.8122 13.2058 6.07193 13.2114C6.31284 13.2169 6.51423 13.2262 6.87935 13.1484C7.04686 13.1114 7.24637 13.0762 7.37623 13.0762C7.47786 13.0762 7.58138 13.1188 7.63219 13.1836C7.68301 13.2465 7.70936 13.3317 7.69994 13.4298C7.68112 13.6464 7.41763 14.05 7.02051 14.4407C6.82289 14.6351 6.6855 14.7665 6.38813 14.9776C6.07382 15.1998 5.76327 15.3719 5.35109 15.5367C4.74506 15.7774 4.14467 15.8755 3.30526 15.9051C2.36609 15.9366 1.42505 15.6126 0.890536 15.2275C0.288265 14.7924 0.011578 14.2204 0.000285444 13.5483C-0.00724294 13.1947 0.135816 12.7078 0.231802 12.4153C0.327789 12.1209 1.61702 8.19964 1.61702 8.19964C1.68854 7.95896 1.72429 7.76642 1.72429 7.62571C1.72429 7.34245 1.65654 7.10176 1.51915 6.90181C1.38176 6.70371 1.17095 6.50006 0.945101 6.2853C0.732424 6.08165 0.606324 5.92242 0.52163 5.78727C0.435053 5.65211 0.395534 5.48735 0.455761 5.30776C0.521634 5.11522 0.64209 4.9449 0.834064 4.85603C1.0298 4.76531 1.27635 4.73013 1.67912 4.73013H2.88178L3.64779 3.93587C4.12396 3.46747 4.35546 3.22309 4.73753 2.87688C5.06878 2.57695 5.58071 2.12337 6.76643 2.17151C7.60961 2.20483 8.27776 2.42329 8.13284 3.162C8.09143 3.37121 8.02178 3.56374 7.97472 3.75073L7.67171 4.73013H8.67865C8.95343 4.73013 9.16609 4.78753 9.31666 4.90046" fill="white"/>
<path d="M86.1221 4.96904C86.2727 5.08383 86.3499 5.23933 86.3499 5.43743C86.3499 5.49482 86.3348 5.59294 86.3066 5.7355C86.1184 6.35942 85.6855 6.67232 85.0079 6.67232H83.8919L82.2206 11.9303C82.1434 12.1728 82.0662 12.3616 82.0549 12.5912C82.0436 12.8467 82.1264 13.0244 82.2713 13.1244C82.4163 13.2244 82.6158 13.2781 82.8755 13.2836C83.1164 13.2892 83.3178 13.2985 83.6829 13.2207C83.8504 13.1837 84.0499 13.1485 84.1798 13.1485C84.2814 13.1485 84.3849 13.1911 84.4358 13.2559C84.4866 13.3188 84.5129 13.404 84.5035 13.5021C84.4847 13.7187 84.2212 14.1223 83.8241 14.513C83.6265 14.7074 83.4891 14.8388 83.1917 15.0499C82.8774 15.272 82.5668 15.4442 82.1547 15.609C81.5486 15.8497 80.9482 15.9478 80.1088 15.9774C79.1697 16.0089 78.2286 15.6849 77.6941 15.2998C77.0918 14.8647 76.817 14.2927 76.8039 13.6206C76.7982 13.267 76.9394 12.7801 77.0354 12.4876C77.1314 12.1932 78.4206 8.27193 78.4206 8.27193C78.4921 8.03125 78.5279 7.8387 78.5279 7.698C78.5279 7.41473 78.4601 7.17405 78.3227 6.9741C78.1853 6.776 77.9745 6.57235 77.7487 6.35759C77.536 6.15394 77.4099 5.99471 77.3252 5.85955C77.2386 5.7244 77.1991 5.55963 77.2593 5.38005C77.3252 5.1875 77.4457 5.01716 77.6376 4.9283C77.8334 4.83758 78.0799 4.80241 78.4827 4.80241H79.6854L80.4514 4.00816C80.9275 3.53976 81.159 3.29538 81.5411 2.94917C81.8723 2.64924 82.3843 2.19564 83.57 2.24377C84.4132 2.2771 85.0813 2.49558 84.9364 3.23429C84.895 3.4435 84.8254 3.63603 84.7783 3.82302L84.4753 4.80241H85.4822C85.757 4.80241 85.9697 4.85979 86.1202 4.97273" fill="white"/>
<path d="M76.0522 8.64746C76.1859 8.19757 76.3647 7.56808 76.3647 7.12745C76.3647 6.29062 76.0617 5.72966 75.578 5.26681C75.0321 4.74657 74.4431 4.49292 73.5622 4.49292C72.8263 4.49292 72.145 4.63549 71.5183 4.91875C70.8896 5.20201 70.2893 5.7204 69.7265 6.4443L69.5553 6.68313C69.6494 5.98886 69.7811 5.46861 69.4122 5.05575C69.0396 4.63919 68.4241 4.4707 67.7033 4.4707C66.8093 4.4707 65.951 4.59475 65.1286 4.84284C64.3061 5.09092 63.8525 5.37975 63.764 5.70559C63.7226 5.84445 63.7358 5.9796 63.7923 6.05921C63.8506 6.14253 63.9955 6.26841 64.0821 6.34987C64.1687 6.42948 64.3287 6.56277 64.404 6.6646C64.4661 6.75162 64.4999 6.87012 64.5018 7.02749C64.5018 7.13487 64.4849 7.2367 64.4585 7.32556C64.4322 7.41443 62.5331 13.4777 62.5331 13.4777C62.4315 13.8184 62.3092 14.0665 62.1643 14.222C62.0193 14.3775 61.8405 14.5127 61.6222 14.6256C61.3775 14.7533 61.2364 14.8811 61.1686 15.0718C61.1253 15.2699 61.1875 15.431 61.3531 15.5513C61.5187 15.6716 61.7897 15.7328 62.1643 15.7328C62.1643 15.7328 66.9561 15.7383 67.0972 15.7328C67.2628 15.7253 67.515 15.705 67.707 15.6346C67.9253 15.555 68.0439 15.3995 68.1004 15.2199C68.1343 15.1088 68.1286 15.0163 68.0853 14.9441C68.042 14.8737 67.9705 14.7959 67.8689 14.7089C67.739 14.596 67.6374 14.4868 67.5659 14.3794C67.4943 14.2738 67.4586 14.135 67.4586 13.9647C67.4586 13.824 67.5075 13.6536 67.5452 13.5185C67.5828 13.3833 68.8871 9.17696 68.8871 9.17696C68.9511 8.9659 69.0395 8.76224 69.1468 8.57525C69.1468 8.5734 69.1487 8.56969 69.1506 8.56784C69.2033 8.47527 69.2616 8.38825 69.3219 8.30679C69.3256 8.30123 69.3294 8.29754 69.335 8.29198C69.3727 8.242 69.416 8.19756 69.4574 8.15313C69.4875 8.12166 69.5195 8.08833 69.5515 8.06056C69.8319 7.81247 70.1048 7.67177 70.3796 7.67177C70.5528 7.67177 70.7485 7.70695 70.8727 7.80877C70.9819 7.89949 71.108 8.00132 71.0986 8.24755C71.0929 8.40862 71.0308 8.59005 70.9593 8.79371C70.9593 8.79371 70.0126 11.6597 69.8922 12.067C69.7209 12.6483 69.4724 13.3537 69.4649 13.9147C69.4517 14.8033 70.0653 15.2792 70.5565 15.568C70.9743 15.8124 71.5296 16.0105 72.4499 15.9993C73.1444 15.9901 73.709 15.8697 74.2341 15.6291C74.7065 15.4124 75.0434 15.1292 75.3897 14.7108C75.6984 14.3368 75.9167 13.8165 75.9017 13.4055C75.9017 13.2778 75.8847 13.1815 75.8415 13.089C75.7982 12.9964 75.7323 12.9353 75.657 12.9482C75.5911 12.9575 75.5366 13.0186 75.4142 13.1667C75.2919 13.3167 75.1375 13.4 74.9663 13.3926C74.8816 13.3889 74.8138 13.3593 74.763 13.3019C74.7122 13.2463 74.6858 13.1556 74.6896 13.063C74.6934 12.9631 74.7122 12.902 74.7329 12.8279C74.7649 12.7131 76.0541 8.65117 76.0541 8.65117" fill="white"/>
<path d="M56.3674 2.75638C56.2996 2.86747 56.1603 2.94894 55.9759 3.04151C54.8768 3.59507 53.7738 4.22455 52.6841 5.03731C51.4532 5.95561 50.2731 7.15716 49.2907 8.22726C47.9713 9.6658 46.763 11.3246 45.9086 12.541C45.5227 13.089 45.056 13.7315 44.4857 14.3332C43.8157 15.0422 42.5848 15.9809 40.825 15.9809C39.0653 15.9809 37.9172 14.9978 37.2415 14.1128C36.754 13.4741 35.3368 11.2469 35.7246 7.31452C35.8243 6.30921 35.9673 5.78896 36.1612 5.18171C36.3475 4.60037 36.6543 3.8987 37.0345 3.27664C37.4184 2.64531 37.9548 2.10098 38.4875 1.7307C39.357 1.12715 40.4561 0.795764 41.4179 0.658761C42.3364 0.529163 43.1193 0.584707 43.5992 0.614329C44.113 0.645803 44.5271 0.732806 44.7774 0.786496C44.9242 0.81797 45.0993 0.866121 45.1764 0.893892C45.2574 0.921663 45.359 0.964226 45.3872 0.990145C45.3966 0.999402 45.4004 1.01422 45.3966 1.02348C45.3835 1.0494 45.3515 1.06977 45.2423 1.12532C45.1821 1.15494 45.1162 1.1901 45.039 1.22713C43.7235 1.86401 42.63 2.84896 41.7924 3.80613C40.9737 4.74294 40.4637 5.6927 40.2773 6.18517C40.0232 6.86093 39.7165 8.12914 40.8344 8.1347C41.6174 8.1384 41.9693 7.11457 42.2611 6.32032C43.029 4.22269 43.7875 2.8934 45.3515 1.77516C48.1069 -0.194727 51.632 0.192206 54.0355 1.07162C54.6622 1.30119 55.24 1.59187 55.6239 1.83995C55.9514 2.05101 56.3015 2.31945 56.3843 2.54162C56.4031 2.5916 56.4088 2.63789 56.3975 2.68232C56.39 2.71009 56.3806 2.73417 56.3655 2.75824" fill="white"/>
</svg>
