<svg width="15" height="14" viewBox="0 0 15 14" fill="none" xmlns="http://www.w3.org/2000/svg">
<path d="M5.47307 1.43197C5.30903 1.59606 5.21688 1.81858 5.21688 2.05059C5.21688 2.28261 5.30903 2.50513 5.47307 2.66922L9.80432 7.00047L5.47307 11.3317C5.31368 11.4967 5.22549 11.7178 5.22748 11.9472C5.22947 12.1766 5.3215 12.3961 5.48373 12.5583C5.64596 12.7205 5.86542 12.8126 6.09484 12.8146C6.32427 12.8166 6.54529 12.7284 6.71032 12.569L11.6602 7.61909C11.8242 7.45501 11.9164 7.23249 11.9164 7.00047C11.9164 6.76845 11.8242 6.54593 11.6602 6.38184L6.71032 1.43197C6.54623 1.26793 6.32371 1.17578 6.09169 1.17578C5.85967 1.17578 5.63716 1.26793 5.47307 1.43197Z" fill="#620080"/>
</svg>
