<svg width="6" height="12" viewBox="0 0 6 12" fill="none" xmlns="http://www.w3.org/2000/svg">
<path d="M5.77056 0.264138C5.91747 0.433317 6 0.662742 6 0.901961C6 1.14118 5.91747 1.37061 5.77056 1.53978L1.89154 6.00545L5.77056 10.4711C5.91331 10.6413 5.99229 10.8691 5.99051 11.1057C5.98872 11.3422 5.90631 11.5685 5.76101 11.7358C5.61572 11.903 5.41917 11.9979 5.21371 12C5.00824 12.002 4.81029 11.9111 4.66249 11.7468L0.229439 6.64327C0.0825293 6.47409 0 6.24467 0 6.00545C0 5.76623 0.0825293 5.5368 0.229439 5.36762L4.66249 0.264138C4.80945 0.0950105 5.00873 -2.18939e-07 5.21653 -2.28022e-07C5.42432 -2.37105e-07 5.62361 0.0950105 5.77056 0.264138Z" fill="black"/>
</svg>
