<svg width="16" height="16" viewBox="0 0 16 16" fill="none" xmlns="http://www.w3.org/2000/svg">
<path d="M14.833 3.28296H1.167C0.527 3.28296 0 3.80996 0 4.44996V6.78296C0 7.42296 0.527 7.94996 1.167 7.94996H1.334H1.834H2.334H7.5H8.5H13.667H14.167H14.667H14.834C15.474 7.94996 16.001 7.42296 16.001 6.78296V4.44996C16 3.80996 15.473 3.28296 14.833 3.28296Z" fill="#BE63F9"/>
<path d="M1.83301 8.94997H1.33301V14.116C1.33301 15.129 2.15301 15.949 3.16601 15.949H7.50001V15.449V14.949V8.94897H2.33301L1.83301 8.94997Z" fill="#D9A4FC"/>
<path d="M13.667 8.94995H8.5V14.95V15.45V15.95H12.833C13.846 15.95 14.666 15.13 14.666 14.117V8.94995H14.166H13.667Z" fill="#D9A4FC"/>
<path d="M11.149 0.551049C10.481 -0.115951 9.31801 -0.116951 8.65101 0.551049C8.40801 0.794049 8.18601 1.29905 8.00001 1.83705C7.81401 1.30005 7.59201 0.794049 7.34901 0.551049C6.68201 -0.116951 5.51901 -0.116951 4.85101 0.551049C4.51701 0.884049 4.33301 1.32805 4.33301 1.80005C4.33301 2.27205 4.51701 2.71605 4.85101 3.04905C5.40601 3.60305 7.31901 4.06105 7.89201 4.18805C7.92801 4.19605 7.96401 4.20005 8.00001 4.20005C8.03601 4.20005 8.07201 4.19605 8.10801 4.18805C8.68101 4.06105 10.594 3.60305 11.149 3.04905C11.483 2.71505 11.667 2.27205 11.667 1.80005C11.667 1.32805 11.483 0.884049 11.149 0.551049ZM5.55801 2.34205C5.41301 2.19705 5.33301 2.00405 5.33301 1.80005C5.33301 1.59605 5.41201 1.40305 5.55801 1.25805C5.70301 1.11305 5.89501 1.03305 6.10001 1.03305C6.30401 1.03305 6.49701 1.11305 6.64201 1.25705C6.81801 1.43305 7.09201 2.20005 7.31501 3.01405C6.50101 2.79105 5.73401 2.51805 5.55801 2.34205ZM10.442 2.34205C10.266 2.51805 9.49901 2.79105 8.68501 3.01405C8.90801 2.20105 9.18101 1.43405 9.35801 1.25705C9.50301 1.11205 9.69501 1.03305 9.90001 1.03305C10.105 1.03305 10.297 1.11305 10.442 1.25805C10.587 1.40305 10.667 1.59505 10.667 1.80005C10.667 2.00505 10.587 2.19705 10.442 2.34205Z" fill="#BE63F9"/>
</svg>
