<svg width="18" height="18" viewBox="0 0 18 18" fill="none" xmlns="http://www.w3.org/2000/svg">
<path d="M9 0C4.03814 0 0 4.03621 0 9C0 13.9638 4.03621 18 9 18C13.9638 18 18 13.9638 18 9C18 4.03621 13.9619 0 9 0ZM14.7718 7.34155L13.9368 12.0604C13.8462 12.5232 13.4489 12.8569 12.9861 12.8569H5.01586C4.55303 12.8569 4.15385 12.5232 4.06514 12.0604L3.23013 7.34155C3.16649 6.99443 3.30726 6.63381 3.59074 6.4159C3.88579 6.19799 4.27148 6.15942 4.59353 6.30019L6.50846 7.21234L8.16692 4.34476C8.51403 3.74116 9.49175 3.74116 9.83887 4.34476L11.4973 7.21234L13.4123 6.30019C13.7459 6.14592 14.12 6.19799 14.415 6.4159C14.6947 6.63381 14.8374 6.99443 14.7718 7.34155Z" fill="#FFD200"/>
</svg>
