<svg width="17" height="18" viewBox="0 0 17 18" fill="none" xmlns="http://www.w3.org/2000/svg">
<path d="M8.02935 4.33203H8.96881C9.05474 4.33203 9.12506 4.40235 9.12506 4.48828V9.86524C9.12506 9.91602 9.10162 9.96289 9.0606 9.99219L5.83209 12.3496C5.76178 12.4004 5.66412 12.3867 5.61334 12.3164L5.05474 11.5547C5.00201 11.4824 5.01763 11.3848 5.08795 11.3359L7.8731 9.32227V4.48828C7.8731 4.40235 7.94341 4.33203 8.02935 4.33203ZM3.73638 5.80078L0.673883 6.54883C0.576227 6.57227 0.480526 6.49805 0.480526 6.39844L0.464899 3.24414C0.464899 3.11328 0.61529 3.03907 0.716853 3.1211L3.79498 5.52539C3.81824 5.54339 3.83595 5.56759 3.84608 5.5952C3.8562 5.62282 3.85832 5.65273 3.8522 5.6815C3.84608 5.71027 3.83196 5.73672 3.81148 5.75782C3.79099 5.77893 3.76496 5.79382 3.73638 5.80078ZM0.460995 11.6816L1.56841 11.3008C1.60703 11.2875 1.64928 11.2899 1.68615 11.3075C1.72301 11.325 1.75156 11.3562 1.76568 11.3945C1.80279 11.4941 1.84185 11.5918 1.88287 11.6895C2.23053 12.5117 2.72857 13.252 3.36529 13.8867C3.99494 14.5183 4.74115 15.0218 5.56256 15.3691C6.41348 15.7289 7.32816 15.9136 8.25201 15.9121C9.1856 15.9121 10.0899 15.7305 10.9415 15.3691C11.7629 15.0218 12.5091 14.5183 13.1387 13.8867C13.7735 13.252 14.2715 12.5117 14.6211 11.6895C14.9789 10.8381 15.1623 9.92352 15.1602 9C15.1602 8.06641 14.9786 7.16016 14.6172 6.3086C14.2696 5.48633 13.7715 4.7461 13.1348 4.11133C12.5052 3.47973 11.759 2.97628 10.9376 2.62891C10.0899 2.26758 9.18365 2.08594 8.25006 2.08594C7.31646 2.08594 6.41216 2.26758 5.5606 2.62891C4.73919 2.97628 3.99299 3.47973 3.36334 4.11133C3.16412 4.3125 2.97662 4.52149 2.80474 4.74219L1.63677 3.82813C3.17388 1.86328 5.56646 0.599612 8.25396 0.601565C12.9336 0.603518 16.6915 4.4043 16.6446 9.08594C16.5977 13.6856 12.8575 17.3984 8.25006 17.3984C4.62701 17.3984 1.54107 15.1016 0.36529 11.8848C0.335993 11.8027 0.378963 11.7109 0.460995 11.6816Z" fill="white"/>
</svg>
