<svg width="18" height="18" viewBox="0 0 18 18" fill="none" xmlns="http://www.w3.org/2000/svg">
<path d="M17.1634 15.8366L13.4533 12.1249C14.5657 10.6753 15.085 8.85676 14.906 7.03828C14.7269 5.21981 13.8629 3.53752 12.4891 2.3327C11.1153 1.12787 9.33464 0.490715 7.50834 0.550486C5.68205 0.610256 3.94687 1.36247 2.65479 2.65455C1.36272 3.94663 0.6105 5.68181 0.55073 7.5081C0.490959 9.33439 1.12811 11.115 2.33294 12.4888C3.53777 13.8626 5.22005 14.7267 7.03853 14.9057C8.85701 15.0848 10.6755 14.5654 12.1251 13.453L15.8384 17.1671C15.9256 17.2543 16.0292 17.3235 16.1431 17.3707C16.257 17.4179 16.3792 17.4421 16.5025 17.4421C16.6258 17.4421 16.7479 17.4179 16.8619 17.3707C16.9758 17.3235 17.0793 17.2543 17.1665 17.1671C17.2537 17.0799 17.3229 16.9763 17.3701 16.8624C17.4173 16.7485 17.4416 16.6263 17.4416 16.503C17.4416 16.3797 17.4173 16.2576 17.3701 16.1436C17.3229 16.0297 17.2537 15.9262 17.1665 15.839L17.1634 15.8366ZM2.43764 7.74989C2.43764 6.69918 2.74921 5.67206 3.33295 4.79843C3.9167 3.92479 4.7464 3.24387 5.71713 2.84178C6.68786 2.43969 7.75603 2.33449 8.78656 2.53947C9.81708 2.74446 10.7637 3.25042 11.5066 3.99339C12.2496 4.73635 12.7556 5.68295 12.9606 6.71348C13.1655 7.744 13.0603 8.81217 12.6582 9.7829C12.2562 10.7536 11.5752 11.5833 10.7016 12.1671C9.82797 12.7508 8.80085 13.0624 7.75014 13.0624C6.34162 13.0609 4.9912 12.5008 3.99523 11.5048C2.99926 10.5088 2.43908 9.15841 2.43764 7.74989Z" fill="#7B00A0"/>
</svg>
