<svg width="44" height="44" viewBox="0 0 44 44" fill="none" xmlns="http://www.w3.org/2000/svg">
<rect width="44" height="44" rx="22" fill="white"/>
<rect x="0.5" y="0.5" width="43" height="43" rx="21.5" stroke="black" stroke-opacity="0.2"/>
<path d="M28.9717 18.1946C28.9258 18.2729 28.8321 18.3304 28.708 18.3954C27.9666 18.7848 27.2233 19.2269 26.4865 19.8C25.6559 20.4458 24.8593 21.2914 24.1969 22.0446C23.3066 23.0571 22.4917 24.2241 21.9156 25.0792C21.6556 25.4647 21.3405 25.9163 20.9555 26.3405C20.5035 26.8392 19.6729 27.5 18.4859 27.5C17.2988 27.5 16.5234 26.8081 16.0677 26.1849C15.7388 25.7362 14.7824 24.1685 15.0451 21.4007C15.1122 20.6937 15.2087 20.327 15.34 19.9C15.4659 19.4918 15.6735 18.9978 15.929 18.5594C16.1881 18.1154 16.5491 17.7327 16.9093 17.4725C17.4955 17.0474 18.2369 16.8145 18.8864 16.7174C19.5057 16.626 20.0349 16.6646 20.3583 16.6854C20.7047 16.708 20.9849 16.7693 21.154 16.807C21.2532 16.8296 21.3708 16.8635 21.4222 16.8824C21.4774 16.9022 21.5454 16.9314 21.5656 16.9503C21.572 16.9569 21.5748 16.9663 21.5711 16.9738C21.5619 16.9927 21.5408 17.0059 21.4673 17.0455C21.4268 17.0672 21.3827 17.0907 21.3304 17.1171C20.4428 17.5658 19.7041 18.2587 19.1409 18.9318C18.5888 19.5908 18.2442 20.2601 18.1193 20.606C17.9484 21.0812 17.7417 21.9739 18.4951 21.9777C19.0234 21.9805 19.2613 21.2593 19.4579 20.7003C19.9761 19.225 20.4879 18.2889 21.5435 17.5017C23.4022 16.116 25.7808 16.3875 27.4015 17.0068C27.8251 17.169 28.2137 17.3735 28.4737 17.5479C28.6942 17.6969 28.9313 17.8854 28.9873 18.041C29.0002 18.0758 29.0038 18.1088 28.9956 18.14C28.991 18.1588 28.9836 18.1767 28.9735 18.1927L28.9717 18.1946Z" fill="black" fill-opacity="0.2"/>
</svg>
