<svg width="206" height="35" viewBox="0 0 206 35" fill="none" xmlns="http://www.w3.org/2000/svg">
<path d="M61.6432 20.7429C62.9689 20.7429 65.0274 20.1394 65.7232 18.9285C66.4149 17.7175 66.7484 16.3649 66.7154 14.8785C66.6825 14.0118 66.5466 13.2788 65.8796 13.1776C65.2991 13.0925 64.5375 13.295 63.677 14.3885C63.2324 14.9555 62.7383 15.7452 62.2813 16.8347C61.8243 17.9201 61.4373 19.2079 61.1203 20.6983C61.2438 20.7307 61.4209 20.7429 61.6391 20.7429M74.0397 11.594C75.8389 12.8495 76.7364 14.4574 76.7364 16.4135C76.7364 17.0048 76.6746 17.5475 76.547 18.0415C76.0736 20.0908 74.7561 21.5569 72.5946 22.4438C70.4332 23.3267 67.8847 23.7722 64.9492 23.7722C63.4629 23.7722 62.0755 23.679 60.7827 23.4927C60.7498 25.1087 61.1903 26.2386 62.1084 26.8906C63.0224 27.5427 64.3028 27.8667 65.9414 27.8667C66.6989 27.8667 67.44 27.7978 68.1399 27.6561C68.881 27.5062 69.7209 27.2794 70.7831 26.8987C72.1129 26.4249 73.0022 26.0725 73.4345 26.1414C73.9121 26.2143 74.0315 26.5545 74.0232 26.9878C73.9985 28.0772 73.5951 29.1383 72.7593 30.3979C71.9483 31.621 70.6431 32.6091 68.9716 33.4475C67.3 34.2858 64.3769 34.7111 62.0137 34.7111C58.5101 34.7111 55.6405 33.8443 53.4008 32.1029C51.1611 30.3655 50.0371 27.8343 50.0371 24.5133C50.0371 23.5818 50.1648 22.4964 50.4159 21.2531C51.2064 17.434 52.9314 14.5545 55.5993 12.6146C58.263 10.6747 61.5073 9.70276 65.3238 9.70276C69.3298 9.70276 72.2364 10.3305 74.0356 11.59" fill="#7B00A0"/>
<path d="M122.389 20.7854C123.714 20.7854 125.773 20.182 126.469 18.971C127.165 17.7601 127.494 16.4074 127.461 14.9211C127.428 14.0544 127.292 13.3214 126.625 13.2201C126.045 13.131 125.283 13.3376 124.423 14.431C123.978 14.998 123.484 15.7878 123.027 16.8772C122.57 17.9626 122.183 19.2505 121.866 20.7409C121.989 20.7733 122.166 20.7854 122.385 20.7854M134.785 11.6366C136.584 12.8921 137.482 14.4999 137.482 16.456C137.482 17.0473 137.42 17.59 137.293 18.0841C136.819 20.1333 135.502 21.5994 133.34 22.4864C131.179 23.3692 128.63 23.8147 125.695 23.8147C124.213 23.8147 122.821 23.7216 121.528 23.5353C121.495 25.1512 121.936 26.2811 122.854 26.9332C123.768 27.5852 125.048 27.9092 126.687 27.9092C127.445 27.9092 128.186 27.8404 128.886 27.6986C129.627 27.5488 130.466 27.322 131.529 26.9413C132.859 26.4674 133.748 26.1232 134.18 26.1839C134.629 26.2447 134.781 26.6132 134.773 27.0466C134.748 28.132 134.341 29.1809 133.505 30.4404C132.694 31.6635 131.389 32.6517 129.717 33.49C128.046 34.3284 125.123 34.7536 122.759 34.7536C119.256 34.7536 116.386 33.8869 114.146 32.1454C111.907 30.408 110.783 27.8768 110.783 24.5559C110.783 23.6244 110.91 22.539 111.161 21.2957C111.952 17.4766 113.677 14.5971 116.345 12.6572C119.013 10.7173 122.253 9.7453 126.069 9.7453C130.075 9.7453 132.982 10.3731 134.781 11.6326" fill="#7B00A0"/>
<path d="M204.394 1.1907C205.213 1.98044 205.625 2.9524 205.625 4.10258C205.625 4.90851 205.411 5.70229 204.987 6.47583C204.558 7.25341 203.961 7.88116 203.187 8.35905C202.413 8.84099 201.557 9.07995 200.606 9.07995C199.408 9.07995 198.403 8.68304 197.601 7.8933C196.794 7.09952 196.378 6.11541 196.345 4.93689C196.345 4.16335 196.551 3.39384 196.958 2.63245C197.366 1.87107 197.95 1.24336 198.708 0.745222C199.466 0.251131 200.334 0 201.31 0C202.541 0 203.566 0.396914 204.386 1.18665M202.932 11.0806C203.706 11.7124 203.735 12.7897 203.385 13.9925C203.183 14.6891 202.372 17.0948 202.15 17.8562L198.449 29.605C198.354 29.9776 198.309 30.3016 198.309 30.581C198.309 30.986 198.387 31.3019 198.543 31.5368C198.733 31.8203 199.05 32.0552 199.206 32.2131C199.346 32.3508 199.593 32.5857 199.676 32.7315C199.762 32.8773 199.791 33.0758 199.717 33.3026C199.56 33.7076 199.252 33.9829 198.778 34.1692C198.305 34.3555 197.58 34.4487 196.6 34.4487H186.703C185.883 34.4487 185.282 34.3151 184.903 34.0518C184.525 33.7886 184.401 33.4402 184.525 33.0028C184.652 32.6302 184.982 32.3063 185.517 32.0268C185.99 31.7798 186.386 31.4841 186.703 31.1439C187.016 30.8037 187.283 30.257 187.505 29.5118L191.623 16.0539C191.717 15.7745 191.767 15.5436 191.767 15.3573C191.767 15.0171 191.684 14.7458 191.528 14.5433C191.371 14.3408 191.133 14.1302 190.82 13.9155C190.503 13.6685 190.284 13.4498 190.157 13.2635C190.029 13.0772 190.017 12.8302 190.107 12.5183C190.297 11.8055 191.338 11.2102 193.138 10.6675C194.937 10.1249 196.752 9.87372 198.708 9.97092C200.375 10.0519 202.08 10.4002 202.928 11.0887" fill="#7B00A0"/>
<path d="M46.0659 28.0369C46.0206 28.203 45.9836 28.3325 45.9712 28.5512C45.963 28.7537 46.0206 28.9522 46.1318 29.0737C46.243 29.1992 46.3912 29.26 46.5764 29.2721C46.9552 29.2883 47.2887 29.1061 47.5563 28.7781C47.8239 28.45 47.9433 28.3204 48.0874 28.2961C48.2521 28.2718 48.3962 28.4014 48.4909 28.6039C48.5856 28.8064 48.6227 29.013 48.6227 29.2965C48.6556 30.1955 48.178 31.3335 47.5028 32.1516C46.7452 33.0669 46.1153 33.6339 45.0408 34.1078C43.8592 34.6302 42.8258 34.9542 41.1213 34.9542C39.038 34.9542 37.7123 34.5371 36.7942 34.0106C35.6826 33.3747 34.5216 32.3542 34.5463 30.4142C34.5628 29.1871 35.1062 27.6441 35.4809 26.3724C35.7444 25.4814 37.8153 19.2121 37.8153 19.2121C37.9759 18.7666 38.1076 18.3738 38.1241 18.0174C38.1447 17.4787 37.8688 17.256 37.63 17.0575C37.3542 16.8307 36.9301 16.7579 36.5513 16.7579C35.9502 16.7579 35.3532 17.0657 34.7398 17.6084C34.1222 18.1511 33.6282 19.0299 33.2494 20.2368V20.1436L30.2687 29.5961C30.174 29.9687 30.1287 30.2927 30.1287 30.5721C30.1287 30.9771 30.2069 31.2931 30.3633 31.528C30.5198 31.7588 30.7463 31.9451 31.0262 32.2043C31.2568 32.4149 31.4132 32.585 31.4997 32.7308C31.6026 32.9049 31.6273 33.0831 31.5491 33.3018C31.3926 33.7068 31.0674 33.9903 30.598 34.1604C30.1205 34.3346 29.5276 34.4317 28.4201 34.4398L18.7985 34.4075C17.9792 34.4075 17.3575 34.3062 16.9993 34.0106C16.6329 33.7109 16.5258 33.318 16.6205 32.9616C16.7234 32.5809 17.0775 32.2651 17.6127 31.9856C18.0862 31.7386 18.4815 31.4429 18.7985 31.0987C19.1114 30.7585 19.3831 30.2158 19.6013 29.4706L26.2957 7.02992C26.3904 6.75048 26.4398 6.51965 26.4398 6.33335C26.4398 5.99315 26.3533 5.71373 26.1804 5.49504C26.0075 5.27634 25.7769 5.0617 25.4928 4.843C25.1758 4.59596 24.9494 4.37727 24.8053 4.19097C24.6653 4.00467 24.6406 3.75759 24.7353 3.44575C24.9247 2.73296 25.9169 2.11333 27.7161 1.58279C29.5153 1.0563 31.3268 0.841675 33.2824 0.841675C35.1104 0.841675 36.4072 1.19805 37.2224 1.93514C38.0417 2.67222 38.3917 3.34858 38.017 4.74176C37.8359 5.40999 37.6753 5.92434 37.4859 6.61687L35.1392 14.0485C36.3702 12.465 37.6712 11.3634 39.0422 10.7437C40.4132 10.1241 41.9077 9.81227 43.5133 9.81227C45.436 9.81227 46.7288 10.363 47.9227 11.5051C48.9808 12.5135 49.6437 13.7447 49.6437 15.5753C49.6437 16.5392 49.2525 17.9161 48.9602 18.9003C48.9602 18.9003 46.14 27.7899 46.0659 28.0369Z" fill="#7B00A0"/>
<path d="M20.3802 10.7114C20.7096 10.9585 20.8784 11.3027 20.8784 11.7361C20.8784 11.8616 20.8455 12.0762 20.7837 12.3881C20.372 13.7529 19.4251 14.4373 17.9429 14.4373H15.5015L11.8455 25.9391C11.6767 26.4697 11.5079 26.8827 11.4873 27.3849C11.4585 27.9438 11.6438 28.3326 11.9608 28.5513C12.2778 28.77 12.7142 28.8874 13.2823 28.8996C13.8093 28.9117 14.2499 28.932 15.0486 28.7619C15.415 28.6809 15.8514 28.604 16.1355 28.604C16.3578 28.604 16.5843 28.6971 16.6954 28.8389C16.8066 28.9766 16.8642 29.1629 16.8436 29.3775C16.8025 29.8513 16.2261 30.7342 15.3574 31.5887C14.9251 32.014 14.6245 32.3015 13.974 32.7632C13.2865 33.2492 12.6072 33.6259 11.7055 33.9863C10.3798 34.5128 9.06647 34.7275 7.23025 34.7923C5.17582 34.8611 3.1173 34.1524 1.94805 33.31C0.63058 32.3582 0.0253269 31.1068 0.000624409 29.6367C-0.0158439 28.8632 0.297097 27.798 0.507068 27.1582C0.717039 26.5142 3.53724 17.9365 3.53724 17.9365C3.69368 17.41 3.77189 16.9888 3.77189 16.681C3.77189 16.0614 3.62369 15.5349 3.32314 15.0975C3.02259 14.6641 2.56146 14.2186 2.06741 13.7489C1.60218 13.3034 1.32633 12.955 1.14106 12.6594C0.951679 12.3638 0.86523 12.0033 0.996977 11.6105C1.14107 11.1893 1.40457 10.8167 1.82451 10.6223C2.25269 10.4239 2.79203 10.3469 3.67308 10.3469H6.3039L7.97953 8.60947C9.02116 7.58484 9.52757 7.05026 10.3633 6.29293C11.0879 5.63684 12.2078 4.64463 14.8016 4.74993C16.646 4.82283 18.1076 5.30071 17.7906 6.91663C17.7 7.37427 17.5476 7.79544 17.4447 8.20448L16.7819 10.3469H18.9845C19.5856 10.3469 20.0508 10.4725 20.3802 10.7195" fill="#7B00A0"/>
<path d="M188.392 10.8698C188.722 11.1209 188.891 11.461 188.891 11.8944C188.891 12.0199 188.858 12.2346 188.796 12.5464C188.384 13.9112 187.437 14.5957 185.955 14.5957H183.514L179.858 26.0975C179.689 26.628 179.52 27.0411 179.495 27.5433C179.471 28.1022 179.652 28.491 179.969 28.7097C180.286 28.9284 180.722 29.0458 181.29 29.058C181.817 29.0701 182.258 29.0904 183.057 28.9203C183.423 28.8393 183.859 28.7623 184.143 28.7623C184.366 28.7623 184.592 28.8555 184.703 28.9972C184.815 29.1349 184.872 29.3212 184.852 29.5359C184.81 30.0097 184.234 30.8926 183.365 31.7471C182.933 32.1724 182.633 32.4599 181.982 32.9216C181.294 33.4076 180.615 33.7843 179.714 34.1447C178.388 34.6712 177.074 34.8858 175.238 34.9506C173.184 35.0195 171.125 34.3107 169.956 33.4683C168.639 32.5166 168.037 31.2652 168.009 29.7951C167.996 29.0215 168.305 27.9564 168.515 27.3165C168.725 26.6726 171.545 18.0948 171.545 18.0948C171.702 17.5683 171.78 17.1472 171.78 16.8394C171.78 16.2197 171.632 15.6932 171.331 15.2558C171.031 14.8225 170.569 14.377 170.075 13.9072C169.61 13.4617 169.334 13.1134 169.149 12.8178C168.96 12.5221 168.873 12.1617 169.005 11.7689C169.149 11.3477 169.413 10.975 169.833 10.7806C170.261 10.5822 170.8 10.5053 171.681 10.5053H174.312L175.988 8.76785C177.029 7.74322 177.536 7.20864 178.371 6.4513C179.096 5.79521 180.216 4.80296 182.81 4.90826C184.654 4.98115 186.116 5.45908 185.799 7.07501C185.708 7.53265 185.556 7.95381 185.453 8.36285L184.79 10.5053H186.993C187.594 10.5053 188.059 10.6308 188.388 10.8778" fill="#7B00A0"/>
<path d="M166.364 18.9163C166.657 17.9322 167.048 16.5552 167.048 15.5913C167.048 13.7607 166.385 12.5336 165.327 11.5212C164.133 10.3831 162.844 9.82826 160.918 9.82826C159.308 9.82826 157.817 10.1401 156.446 10.7598C155.071 11.3794 153.758 12.5134 152.527 14.0969L152.152 14.6194C152.358 13.1006 152.646 11.9626 151.839 11.0595C151.024 10.1482 149.678 9.77966 148.101 9.77966C146.145 9.77966 144.268 10.051 142.469 10.5937C140.67 11.1364 139.678 11.7682 139.484 12.481C139.393 12.7847 139.422 13.0804 139.546 13.2545C139.673 13.4368 139.99 13.7122 140.18 13.8903C140.369 14.0645 140.719 14.3561 140.884 14.5788C141.02 14.7692 141.094 15.0284 141.098 15.3726C141.098 15.6075 141.061 15.8303 141.003 16.0247C140.946 16.2191 136.791 29.4826 136.791 29.4826C136.569 30.2277 136.302 30.7704 135.984 31.1106C135.667 31.4508 135.276 31.7465 134.799 31.9935C134.264 32.2729 133.955 32.5524 133.807 32.9695C133.712 33.4029 133.848 33.7552 134.21 34.0185C134.572 34.2817 135.165 34.4154 135.984 34.4154C135.984 34.4154 146.467 34.4275 146.775 34.4154C147.138 34.3992 147.689 34.3546 148.109 34.2007C148.587 34.0266 148.846 33.6864 148.97 33.2936C149.044 33.0506 149.032 32.8481 148.937 32.6901C148.842 32.5362 148.686 32.3661 148.463 32.1758C148.179 31.9287 147.957 31.6898 147.801 31.4549C147.644 31.224 147.566 30.9203 147.566 30.5477C147.566 30.2399 147.673 29.8673 147.755 29.5716C147.838 29.276 150.691 20.0746 150.691 20.0746C150.831 19.6129 151.024 19.1674 151.259 18.7584C151.259 18.7543 151.263 18.7462 151.267 18.7422C151.382 18.5397 151.51 18.3493 151.642 18.1711C151.65 18.1589 151.658 18.1509 151.671 18.1387C151.753 18.0294 151.848 17.9322 151.938 17.835C152.004 17.7661 152.074 17.6932 152.144 17.6325C152.757 17.0898 153.354 16.782 153.956 16.782C154.334 16.782 154.763 16.8589 155.034 17.0817C155.273 17.2801 155.549 17.5029 155.528 18.0415C155.516 18.3939 155.38 18.7907 155.224 19.2362C155.224 19.2362 153.153 25.5055 152.889 26.3965C152.515 27.6682 151.971 29.2112 151.955 30.4383C151.926 32.3823 153.268 33.4232 154.343 34.0549C155.257 34.5895 156.471 35.0229 158.484 34.9986C160.004 34.9783 161.239 34.7151 162.387 34.1886C163.421 33.7147 164.158 33.0951 164.915 32.1798C165.59 31.3617 166.068 30.2237 166.035 29.3246C166.035 29.0452 165.998 28.8346 165.903 28.6321C165.809 28.4296 165.665 28.2959 165.5 28.3243C165.356 28.3445 165.236 28.4782 164.969 28.8022C164.701 29.1302 164.364 29.3125 163.989 29.2963C163.804 29.2882 163.655 29.2234 163.544 29.0978C163.433 28.9763 163.375 28.7779 163.384 28.5754C163.392 28.3567 163.433 28.223 163.478 28.061C163.548 27.8099 166.369 18.9244 166.369 18.9244" fill="#7B00A0"/>
<path d="M123.304 6.02959C123.156 6.27258 122.851 6.4508 122.447 6.65329C120.043 7.86422 117.63 9.24121 115.247 11.0191C112.554 13.0279 109.973 15.6563 107.824 17.9971C104.937 21.1439 102.294 24.7726 100.425 27.4334C99.5811 28.6322 98.5601 30.0376 97.3126 31.3538C95.8469 32.9049 93.1543 34.9582 89.3049 34.9582C85.4554 34.9582 82.944 32.8077 81.4659 30.8718C80.3996 29.4746 77.2995 24.6025 78.1476 16.0005C78.3658 13.8014 78.6787 12.6634 79.1027 11.335C79.5103 10.0633 80.1814 8.52842 81.0131 7.16764C81.8529 5.78662 83.0263 4.5959 84.1914 3.78591C86.0935 2.46564 88.4979 1.74073 90.6018 1.44104C92.6109 1.15755 94.3236 1.27905 95.3734 1.34385C96.4974 1.41269 97.4032 1.60301 97.9507 1.72046C98.2719 1.78931 98.6548 1.89464 98.8236 1.95539C99.0006 2.01614 99.2229 2.10924 99.2847 2.16594C99.3053 2.18619 99.3135 2.21861 99.3053 2.23886C99.2765 2.29556 99.2064 2.34013 98.9677 2.46163C98.8359 2.52643 98.6918 2.60335 98.523 2.68435C95.6452 4.07752 93.2532 6.2321 91.4211 8.32592C89.6301 10.3752 88.5144 12.4528 88.1068 13.5301C87.551 15.0083 86.8799 17.7825 89.3255 17.7946C91.0382 17.8027 91.8081 15.5631 92.4462 13.8257C94.126 9.23713 95.7852 6.32931 99.2065 3.88316C105.234 -0.425964 112.945 0.420451 118.203 2.34417C119.574 2.84636 120.838 3.4822 121.678 4.02489C122.394 4.48659 123.16 5.07379 123.341 5.55978C123.382 5.66913 123.394 5.77038 123.37 5.86758C123.353 5.92833 123.333 5.98099 123.3 6.03364" fill="#7B00A0"/>
</svg>
