<svg width="206" height="100" viewBox="0 0 206 100" fill="none" xmlns="http://www.w3.org/2000/svg">
<path d="M61.6432 59.7429C62.9689 59.7429 65.0274 59.1394 65.7232 57.9285C66.4149 56.7175 66.7484 55.3649 66.7154 53.8785C66.6825 53.0118 66.5466 52.2788 65.8796 52.1776C65.2991 52.0925 64.5375 52.295 63.677 53.3885C63.2324 53.9555 62.7383 54.7452 62.2813 55.8347C61.8243 56.9201 61.4373 58.2079 61.1203 59.6983C61.2438 59.7307 61.4209 59.7429 61.6391 59.7429M74.0397 50.594C75.8389 51.8495 76.7364 53.4574 76.7364 55.4135C76.7364 56.0048 76.6746 56.5475 76.547 57.0415C76.0736 59.0908 74.7561 60.5569 72.5946 61.4438C70.4332 62.3267 67.8847 62.7722 64.9492 62.7722C63.4629 62.7722 62.0755 62.679 60.7827 62.4927C60.7498 64.1087 61.1903 65.2386 62.1084 65.8906C63.0224 66.5427 64.3028 66.8667 65.9414 66.8667C66.6989 66.8667 67.44 66.7978 68.1399 66.6561C68.881 66.5062 69.7209 66.2794 70.7831 65.8987C72.1129 65.4249 73.0022 65.0725 73.4345 65.1414C73.9121 65.2143 74.0315 65.5545 74.0232 65.9878C73.9985 67.0772 73.5951 68.1383 72.7593 69.3979C71.9483 70.621 70.6431 71.6091 68.9716 72.4475C67.3 73.2858 64.3769 73.7111 62.0137 73.7111C58.5101 73.7111 55.6405 72.8443 53.4008 71.1029C51.1611 69.3655 50.0371 66.8343 50.0371 63.5133C50.0371 62.5818 50.1648 61.4964 50.4159 60.2531C51.2064 56.434 52.9314 53.5545 55.5993 51.6146C58.263 49.6747 61.5073 48.7028 65.3238 48.7028C69.3298 48.7028 72.2364 49.3305 74.0356 50.59" fill="white"/>
<path d="M122.389 59.7854C123.714 59.7854 125.773 59.182 126.469 57.971C127.165 56.7601 127.494 55.4074 127.461 53.9211C127.428 53.0544 127.292 52.3214 126.625 52.2201C126.045 52.131 125.283 52.3376 124.423 53.431C123.978 53.998 123.484 54.7878 123.027 55.8772C122.57 56.9626 122.183 58.2505 121.866 59.7409C121.989 59.7733 122.166 59.7854 122.385 59.7854M134.785 50.6366C136.584 51.8921 137.482 53.4999 137.482 55.456C137.482 56.0473 137.42 56.59 137.293 57.0841C136.819 59.1333 135.502 60.5994 133.34 61.4864C131.179 62.3692 128.63 62.8147 125.695 62.8147C124.213 62.8147 122.821 62.7216 121.528 62.5353C121.495 64.1512 121.936 65.2811 122.854 65.9332C123.768 66.5852 125.048 66.9092 126.687 66.9092C127.445 66.9092 128.186 66.8404 128.886 66.6986C129.627 66.5488 130.466 66.322 131.529 65.9413C132.859 65.4674 133.748 65.1232 134.18 65.1839C134.629 65.2447 134.781 65.6132 134.773 66.0466C134.748 67.132 134.341 68.1809 133.505 69.4404C132.694 70.6635 131.389 71.6517 129.717 72.49C128.046 73.3284 125.123 73.7536 122.759 73.7536C119.256 73.7536 116.386 72.8869 114.146 71.1454C111.907 69.408 110.783 66.8768 110.783 63.5559C110.783 62.6244 110.91 61.539 111.161 60.2957C111.952 56.4766 113.677 53.5971 116.345 51.6572C119.013 49.7173 122.253 48.7453 126.069 48.7453C130.075 48.7453 132.982 49.3731 134.781 50.6326" fill="white"/>
<path d="M204.394 40.1907C205.213 40.9804 205.625 41.9524 205.625 43.1026C205.625 43.9085 205.411 44.7023 204.987 45.4758C204.558 46.2534 203.961 46.8812 203.187 47.3591C202.413 47.841 201.557 48.08 200.606 48.08C199.408 48.08 198.403 47.683 197.601 46.8933C196.794 46.0995 196.378 45.1154 196.345 43.9369C196.345 43.1633 196.551 42.3938 196.958 41.6325C197.366 40.8711 197.95 40.2434 198.708 39.7452C199.466 39.2511 200.334 39 201.31 39C202.541 39 203.566 39.3969 204.386 40.1867M202.932 50.0806C203.706 50.7124 203.735 51.7897 203.385 52.9925C203.183 53.6891 202.372 56.0948 202.15 56.8562L198.449 68.605C198.354 68.9776 198.309 69.3016 198.309 69.581C198.309 69.986 198.387 70.3019 198.543 70.5368C198.733 70.8203 199.05 71.0552 199.206 71.2131C199.346 71.3508 199.593 71.5857 199.676 71.7315C199.762 71.8773 199.791 72.0758 199.717 72.3026C199.56 72.7076 199.252 72.9829 198.778 73.1692C198.305 73.3555 197.58 73.4487 196.6 73.4487H186.703C185.883 73.4487 185.282 73.3151 184.903 73.0518C184.525 72.7886 184.401 72.4402 184.525 72.0028C184.652 71.6302 184.982 71.3063 185.517 71.0268C185.99 70.7798 186.386 70.4841 186.703 70.1439C187.016 69.8037 187.283 69.257 187.505 68.5118L191.623 55.0539C191.717 54.7745 191.767 54.5436 191.767 54.3573C191.767 54.0171 191.684 53.7458 191.528 53.5433C191.371 53.3408 191.133 53.1302 190.82 52.9155C190.503 52.6685 190.284 52.4498 190.157 52.2635C190.029 52.0772 190.017 51.8302 190.107 51.5183C190.297 50.8055 191.338 50.2102 193.138 49.6675C194.937 49.1249 196.752 48.8737 198.708 48.9709C200.375 49.0519 202.08 49.4002 202.928 50.0887" fill="white"/>
<path d="M46.0659 67.0369C46.0206 67.203 45.9836 67.3325 45.9712 67.5512C45.963 67.7537 46.0206 67.9522 46.1318 68.0737C46.243 68.1992 46.3912 68.26 46.5764 68.2721C46.9552 68.2883 47.2887 68.1061 47.5563 67.7781C47.8239 67.45 47.9433 67.3204 48.0874 67.2961C48.2521 67.2718 48.3962 67.4014 48.4909 67.6039C48.5856 67.8064 48.6227 68.013 48.6227 68.2965C48.6556 69.1955 48.178 70.3335 47.5028 71.1516C46.7452 72.0669 46.1153 72.6339 45.0408 73.1078C43.8592 73.6302 42.8258 73.9542 41.1213 73.9542C39.038 73.9542 37.7123 73.5371 36.7942 73.0106C35.6826 72.3747 34.5216 71.3542 34.5463 69.4142C34.5628 68.1871 35.1062 66.6441 35.4809 65.3724C35.7444 64.4814 37.8153 58.2121 37.8153 58.2121C37.9759 57.7666 38.1076 57.3738 38.1241 57.0174C38.1447 56.4787 37.8688 56.256 37.63 56.0575C37.3542 55.8307 36.9301 55.7579 36.5513 55.7579C35.9502 55.7579 35.3532 56.0657 34.7398 56.6084C34.1222 57.1511 33.6282 58.0299 33.2494 59.2368V59.1436L30.2687 68.5961C30.174 68.9687 30.1287 69.2927 30.1287 69.5721C30.1287 69.9771 30.2069 70.2931 30.3633 70.528C30.5198 70.7588 30.7463 70.9451 31.0262 71.2043C31.2568 71.4149 31.4132 71.585 31.4997 71.7308C31.6026 71.9049 31.6273 72.0831 31.5491 72.3018C31.3926 72.7068 31.0674 72.9903 30.598 73.1604C30.1205 73.3346 29.5276 73.4317 28.4201 73.4398L18.7985 73.4075C17.9792 73.4075 17.3575 73.3062 16.9993 73.0106C16.6329 72.7109 16.5258 72.318 16.6205 71.9616C16.7234 71.5809 17.0775 71.2651 17.6127 70.9856C18.0862 70.7386 18.4815 70.4429 18.7985 70.0987C19.1114 69.7585 19.3831 69.2158 19.6013 68.4706L26.2957 46.0299C26.3904 45.7505 26.4398 45.5196 26.4398 45.3333C26.4398 44.9932 26.3533 44.7137 26.1804 44.495C26.0075 44.2763 25.7769 44.0617 25.4928 43.843C25.1758 43.596 24.9494 43.3773 24.8053 43.191C24.6653 43.0047 24.6406 42.7576 24.7353 42.4457C24.9247 41.733 25.9169 41.1133 27.7161 40.5828C29.5153 40.0563 31.3268 39.8417 33.2824 39.8417C35.1104 39.8417 36.4072 40.198 37.2224 40.9351C38.0417 41.6722 38.3917 42.3486 38.017 43.7418C37.8359 44.41 37.6753 44.9243 37.4859 45.6169L35.1392 53.0485C36.3702 51.465 37.6712 50.3634 39.0422 49.7437C40.4132 49.1241 41.9077 48.8123 43.5133 48.8123C45.436 48.8123 46.7288 49.363 47.9227 50.5051C48.9808 51.5135 49.6437 52.7447 49.6437 54.5753C49.6437 55.5392 49.2525 56.9161 48.9602 57.9003C48.9602 57.9003 46.14 66.7899 46.0659 67.0369Z" fill="white"/>
<path d="M20.3802 49.7114C20.7096 49.9585 20.8784 50.3027 20.8784 50.7361C20.8784 50.8616 20.8455 51.0762 20.7837 51.3881C20.372 52.7529 19.4251 53.4373 17.9429 53.4373H15.5015L11.8455 64.9391C11.6767 65.4697 11.5079 65.8827 11.4873 66.3849C11.4585 66.9438 11.6438 67.3326 11.9608 67.5513C12.2778 67.77 12.7142 67.8874 13.2823 67.8996C13.8093 67.9117 14.2499 67.932 15.0486 67.7619C15.415 67.6809 15.8514 67.604 16.1355 67.604C16.3578 67.604 16.5843 67.6971 16.6954 67.8389C16.8066 67.9766 16.8642 68.1629 16.8436 68.3775C16.8025 68.8513 16.2261 69.7342 15.3574 70.5887C14.9251 71.014 14.6245 71.3015 13.974 71.7632C13.2865 72.2492 12.6072 72.6259 11.7055 72.9863C10.3798 73.5128 9.06647 73.7275 7.23025 73.7923C5.17582 73.8611 3.1173 73.1524 1.94805 72.31C0.63058 71.3582 0.0253269 70.1068 0.000624409 68.6367C-0.0158439 67.8632 0.297097 66.798 0.507068 66.1582C0.717039 65.5142 3.53724 56.9365 3.53724 56.9365C3.69368 56.41 3.77189 55.9888 3.77189 55.681C3.77189 55.0614 3.62369 54.5349 3.32314 54.0975C3.02259 53.6641 2.56146 53.2186 2.06741 52.7489C1.60218 52.3034 1.32633 51.955 1.14106 51.6594C0.951679 51.3638 0.86523 51.0033 0.996977 50.6105C1.14107 50.1893 1.40457 49.8167 1.82451 49.6223C2.25269 49.4239 2.79203 49.3469 3.67308 49.3469H6.3039L7.97953 47.6095C9.02116 46.5848 9.52757 46.0503 10.3633 45.2929C11.0879 44.6368 12.2078 43.6446 14.8016 43.7499C16.646 43.8228 18.1076 44.3007 17.7906 45.9166C17.7 46.3743 17.5476 46.7954 17.4447 47.2045L16.7819 49.3469H18.9845C19.5856 49.3469 20.0508 49.4725 20.3802 49.7195" fill="white"/>
<path d="M188.392 49.8698C188.722 50.1209 188.891 50.461 188.891 50.8944C188.891 51.0199 188.858 51.2346 188.796 51.5464C188.384 52.9112 187.437 53.5957 185.955 53.5957H183.514L179.858 65.0975C179.689 65.628 179.52 66.0411 179.495 66.5433C179.471 67.1022 179.652 67.491 179.969 67.7097C180.286 67.9284 180.722 68.0458 181.29 68.058C181.817 68.0701 182.258 68.0904 183.057 67.9203C183.423 67.8393 183.859 67.7623 184.143 67.7623C184.366 67.7623 184.592 67.8555 184.703 67.9972C184.815 68.1349 184.872 68.3212 184.852 68.5359C184.81 69.0097 184.234 69.8926 183.365 70.7471C182.933 71.1724 182.633 71.4599 181.982 71.9216C181.294 72.4076 180.615 72.7843 179.714 73.1447C178.388 73.6712 177.074 73.8858 175.238 73.9506C173.184 74.0195 171.125 73.3107 169.956 72.4683C168.639 71.5166 168.037 70.2652 168.009 68.7951C167.996 68.0215 168.305 66.9564 168.515 66.3165C168.725 65.6726 171.545 57.0948 171.545 57.0948C171.702 56.5683 171.78 56.1472 171.78 55.8394C171.78 55.2197 171.632 54.6932 171.331 54.2558C171.031 53.8225 170.569 53.377 170.075 52.9072C169.61 52.4617 169.334 52.1134 169.149 51.8178C168.96 51.5221 168.873 51.1617 169.005 50.7689C169.149 50.3477 169.413 49.975 169.833 49.7806C170.261 49.5822 170.8 49.5053 171.681 49.5053H174.312L175.988 47.7678C177.029 46.7432 177.536 46.2086 178.371 45.4513C179.096 44.7952 180.216 43.803 182.81 43.9083C184.654 43.9812 186.116 44.4591 185.799 46.075C185.708 46.5326 185.556 46.9538 185.453 47.3629L184.79 49.5053H186.993C187.594 49.5053 188.059 49.6308 188.388 49.8778" fill="white"/>
<path d="M166.364 57.9163C166.657 56.9322 167.048 55.5552 167.048 54.5913C167.048 52.7607 166.385 51.5336 165.327 50.5212C164.133 49.3831 162.844 48.8283 160.918 48.8283C159.308 48.8283 157.817 49.1401 156.446 49.7598C155.071 50.3794 153.758 51.5134 152.527 53.0969L152.152 53.6194C152.358 52.1006 152.646 50.9626 151.839 50.0595C151.024 49.1482 149.678 48.7797 148.101 48.7797C146.145 48.7797 144.268 49.051 142.469 49.5937C140.67 50.1364 139.678 50.7682 139.484 51.481C139.393 51.7847 139.422 52.0804 139.546 52.2545C139.673 52.4368 139.99 52.7122 140.18 52.8903C140.369 53.0645 140.719 53.3561 140.884 53.5788C141.02 53.7692 141.094 54.0284 141.098 54.3726C141.098 54.6075 141.061 54.8303 141.003 55.0247C140.946 55.2191 136.791 68.4826 136.791 68.4826C136.569 69.2277 136.302 69.7704 135.984 70.1106C135.667 70.4508 135.276 70.7465 134.799 70.9935C134.264 71.2729 133.955 71.5524 133.807 71.9695C133.712 72.4029 133.848 72.7552 134.21 73.0185C134.572 73.2817 135.165 73.4154 135.984 73.4154C135.984 73.4154 146.467 73.4275 146.775 73.4154C147.138 73.3992 147.689 73.3546 148.109 73.2007C148.587 73.0266 148.846 72.6864 148.97 72.2936C149.044 72.0506 149.032 71.8481 148.937 71.6901C148.842 71.5362 148.686 71.3661 148.463 71.1758C148.179 70.9287 147.957 70.6898 147.801 70.4549C147.644 70.224 147.566 69.9203 147.566 69.5477C147.566 69.2399 147.673 68.8673 147.755 68.5716C147.838 68.276 150.691 59.0746 150.691 59.0746C150.831 58.6129 151.024 58.1674 151.259 57.7584C151.259 57.7543 151.263 57.7462 151.267 57.7422C151.382 57.5397 151.51 57.3493 151.642 57.1711C151.65 57.1589 151.658 57.1509 151.671 57.1387C151.753 57.0294 151.848 56.9322 151.938 56.835C152.004 56.7661 152.074 56.6932 152.144 56.6325C152.757 56.0898 153.354 55.782 153.956 55.782C154.334 55.782 154.763 55.8589 155.034 56.0817C155.273 56.2801 155.549 56.5029 155.528 57.0415C155.516 57.3939 155.38 57.7907 155.224 58.2362C155.224 58.2362 153.153 64.5055 152.889 65.3965C152.515 66.6682 151.971 68.2112 151.955 69.4383C151.926 71.3823 153.268 72.4232 154.343 73.0549C155.257 73.5895 156.471 74.0229 158.484 73.9986C160.004 73.9783 161.239 73.7151 162.387 73.1886C163.421 72.7147 164.158 72.0951 164.915 71.1798C165.59 70.3617 166.068 69.2237 166.035 68.3246C166.035 68.0452 165.998 67.8346 165.903 67.6321C165.809 67.4296 165.665 67.2959 165.5 67.3243C165.356 67.3445 165.236 67.4782 164.969 67.8022C164.701 68.1302 164.364 68.3125 163.989 68.2963C163.804 68.2882 163.655 68.2234 163.544 68.0978C163.433 67.9763 163.375 67.7779 163.384 67.5754C163.392 67.3567 163.433 67.223 163.478 67.061C163.548 66.8099 166.369 57.9244 166.369 57.9244" fill="white"/>
<path d="M123.304 45.0296C123.156 45.2726 122.851 45.4508 122.447 45.6533C120.043 46.8642 117.63 48.2412 115.247 50.0191C112.554 52.0279 109.973 54.6563 107.824 56.9971C104.937 60.1439 102.294 63.7726 100.425 66.4334C99.5811 67.6322 98.5601 69.0376 97.3126 70.3538C95.8469 71.9049 93.1543 73.9582 89.3049 73.9582C85.4554 73.9582 82.944 71.8077 81.4659 69.8718C80.3996 68.4746 77.2995 63.6025 78.1476 55.0005C78.3658 52.8014 78.6787 51.6634 79.1027 50.335C79.5103 49.0633 80.1814 47.5284 81.0131 46.1676C81.8529 44.7866 83.0263 43.5959 84.1914 42.7859C86.0935 41.4656 88.4979 40.7407 90.6018 40.441C92.6109 40.1575 94.3236 40.279 95.3734 40.3438C96.4974 40.4127 97.4032 40.603 97.9507 40.7205C98.2719 40.7893 98.6548 40.8946 98.8236 40.9554C99.0006 41.0161 99.2229 41.1092 99.2847 41.1659C99.3053 41.1862 99.3135 41.2186 99.3053 41.2389C99.2765 41.2956 99.2064 41.3401 98.9677 41.4616C98.8359 41.5264 98.6918 41.6033 98.523 41.6843C95.6452 43.0775 93.2532 45.2321 91.4211 47.3259C89.6301 49.3752 88.5144 51.4528 88.1068 52.5301C87.551 54.0083 86.8799 56.7825 89.3255 56.7946C91.0382 56.8027 91.8081 54.5631 92.4462 52.8257C94.126 48.2371 95.7852 45.3293 99.2065 42.8832C105.234 38.574 112.945 39.4205 118.203 41.3442C119.574 41.8464 120.838 42.4822 121.678 43.0249C122.394 43.4866 123.16 44.0738 123.341 44.5598C123.382 44.6691 123.394 44.7704 123.37 44.8676C123.353 44.9283 123.333 44.981 123.3 45.0336" fill="white"/>
</svg>
