<svg width="12" height="6" viewBox="0 0 12 6" fill="none" xmlns="http://www.w3.org/2000/svg">
<path d="M0.264138 5.77056C0.433317 5.91747 0.662742 6 0.901961 6C1.14118 6 1.37061 5.91747 1.53978 5.77056L6.00545 1.89154L10.4711 5.77056C10.6413 5.91331 10.8691 5.99229 11.1057 5.99051C11.3422 5.98872 11.5685 5.90631 11.7358 5.76101C11.903 5.61572 11.9979 5.41917 12 5.21371C12.002 5.00824 11.9111 4.81029 11.7468 4.66249L6.64327 0.229439C6.47409 0.0825293 6.24467 0 6.00545 0C5.76623 0 5.5368 0.0825293 5.36762 0.229439L0.264138 4.66249C0.0950105 4.80945 -2.18939e-07 5.00873 -2.28022e-07 5.21653C-2.37105e-07 5.42432 0.0950105 5.62361 0.264138 5.77056Z" fill="white"/>
</svg>
