<svg width="18" height="17" viewBox="0 0 18 17" fill="none" xmlns="http://www.w3.org/2000/svg">
<path d="M8.84188 14.2742L4.69188 16.7742C4.50855 16.8909 4.31688 16.9409 4.11688 16.9242C3.91688 16.9076 3.74188 16.8409 3.59188 16.7242C3.44188 16.6076 3.32521 16.4619 3.24188 16.2872C3.15855 16.1126 3.14188 15.9166 3.19188 15.6992L4.29188 10.9742L0.616882 7.79922C0.450215 7.64922 0.346215 7.47822 0.304882 7.28622C0.263548 7.09422 0.275882 6.90689 0.341882 6.72422C0.407882 6.54155 0.507882 6.39155 0.641882 6.27422C0.775882 6.15689 0.959215 6.08189 1.19188 6.04922L6.04188 5.62422L7.91688 1.17422C8.00021 0.974219 8.12955 0.824219 8.30488 0.724219C8.48022 0.624219 8.65922 0.574219 8.84188 0.574219C9.02455 0.574219 9.20355 0.624219 9.37888 0.724219C9.55421 0.824219 9.68355 0.974219 9.76688 1.17422L11.6419 5.62422L16.4919 6.04922C16.7252 6.08255 16.9085 6.15755 17.0419 6.27422C17.1752 6.39089 17.2752 6.54089 17.3419 6.72422C17.4085 6.90755 17.4212 7.09522 17.3799 7.28722C17.3385 7.47922 17.2342 7.64989 17.0669 7.79922L13.3919 10.9742L14.4919 15.6992C14.5419 15.9159 14.5252 16.1119 14.4419 16.2872C14.3585 16.4626 14.2419 16.6082 14.0919 16.7242C13.9419 16.8402 13.7669 16.9069 13.5669 16.9242C13.3669 16.9416 13.1752 16.8916 12.9919 16.7742L8.84188 14.2742Z" fill="#7B00A0"/>
</svg>
